/* XPM */
static char *db43d8a707f24e12882c4d65e8636574ljGl26UV1oxkIMcX[] = {
/* columns rows colors chars-per-pixel */
"140 56 171 2 ",
"   c #C3C3C3",
".  c #B9B9B9",
"X  c #AEAEAE",
"o  c #A4A4A4",
"O  c #9B9B9B",
"+  c gray57",
"@  c gray53",
"#  c #7E7E7E",
"$  c #777777",
"%  c #6F6F6F",
"&  c #676767",
"*  c #5F5F5F",
"=  c gray35",
"-  c gray33",
";  c #4E4E4E",
":  c gray30",
">  c #4E4D4D",
",  c #484848",
"<  c #494949",
"1  c #484949",
"2  c gray28",
"3  c #424443",
"4  c #434443",
"5  c #414342",
"6  c #666767",
"7  c #8D8E8D",
"8  c #8E8E8E",
"9  c gray56",
"0  c #909090",
"q  c #767676",
"w  c #444545",
"e  c #484A49",
"r  c gray50",
"t  c #8C8E8D",
"y  c #5B5C5C",
"u  c #3F4140",
"i  c #3D3F3E",
"p  c #848685",
"a  c #D0D1D1",
"s  c gray91",
"d  c #F4F4F4",
"f  c #F3F3F3",
"g  c #F6F6F6",
"h  c #B1B2B2",
"j  c #404241",
"k  c #494B4A",
"l  c #B2B2B2",
"z  c #D7D7D7",
"x  c #F1F1F1",
"c  c #EDEFEE",
"v  c #737574",
"b  c #3C3E3D",
"n  c #3B3D3C",
"m  c #3A3C3B",
"M  c #808281",
"N  c #CECFCF",
"B  c gray94",
"V  c white",
"C  c #B6B7B6",
"Z  c #3D3E3E",
"A  c #454746",
"S  c gray69",
"D  c gray99",
"F  c #F9FAFA",
"G  c #393B3A",
"H  c #383A39",
"J  c #363837",
"K  c #7F8180",
"L  c #EFEFEF",
"P  c gray71",
"I  c #373938",
"U  c #F8FAF9",
"Y  c #717372",
"T  c #353736",
"R  c #333534",
"E  c #7D7F7E",
"W  c #B4B4B4",
"Q  c #363737",
"!  c #AFB0B0",
"~  c #F8F9F9",
"^  c #6D6F6E",
"/  c #323433",
"(  c #343635",
")  c #7C7E7D",
"_  c #CFD0CF",
"`  c #B3B4B4",
"'  c #353636",
"]  c #3E403F",
"[  c #AFAFAF",
"{  c #6C6E6D",
"}  c #313332",
"|  c #333433",
" . c #303231",
".. c #7B7D7C",
"X. c gray70",
"o. c #343534",
"O. c #6C6D6D",
"+. c #2F3130",
"@. c #323232",
"#. c gray19",
"$. c #7B7B7B",
"%. c gray81",
"&. c #343434",
"*. c gray24",
"=. c #F8F8F8",
"-. c #6D6D6D",
";. c #2F2F2F",
":. c #313131",
">. c #3C3C3C",
",. c #CECECE",
"<. c #7C7C7C",
"1. c #D0D0D0",
"2. c gray85",
"3. c #F9F9F9",
"4. c gray32",
"5. c #838383",
"6. c #888888",
"7. c #686868",
"8. c gray20",
"9. c #373737",
"0. c #6A6A6A",
"q. c #868686",
"w. c gray52",
"e. c #4B4B4B",
"r. c gray18",
"t. c #323333",
"y. c #343736",
"u. c #353635",
"i. c #393E3D",
"p. c #3A3E3D",
"a. c #3A3D3C",
"s. c #3A3E3C",
"d. c #393D3C",
"f. c #404847",
"g. c #404947",
"h. c #3F4947",
"j. c #3E4946",
"k. c #485858",
"l. c #475857",
"z. c #485958",
"x. c #475957",
"c. c #475958",
"v. c #485857",
"b. c #516B6D",
"n. c #506C6C",
"m. c #516B6C",
"M. c #5E8284",
"N. c #5E8283",
"B. c #5E8383",
"V. c #5D8283",
"C. c #5D8383",
"Z. c #69A09F",
"A. c #6C9E9F",
"S. c #6D9FA0",
"D. c #6C9EA0",
"F. c #6C9FA0",
"G. c #7CBFBD",
"H. c #7EBEBE",
"J. c #7EBEBF",
"K. c #7EBDBE",
"L. c #7DBDBE",
"P. c #7EBDBF",
"I. c #7FBDBE",
"U. c #7FBCBE",
"Y. c #97D8D7",
"T. c #99D9D7",
"R. c #99D8D6",
"E. c #99D8D7",
"W. c #98D8D6",
"Q. c #98D7D6",
"!. c #99D7D6",
/* pixels */
"                                                                                                                                                                                                                                                                                        ",
". . . . . . . . . . . . . . . . . . . . . . . . . . . . . . . . . . . . . . . . . . . . . . . . . . . . . . . . . . . . . . . . . . . . . . . . . . . . . . . . . . . . . . . . . . . . . . . . . . . . . . . . . . . . . . . . . . . . . . . . . . . . . . . . . . . . . . . . . . . . ",
"X X X X X X X X X X X X X X X X X X X X X X X X X X X X X X X X X X X X X X X X X X X X X X X X X X X X X X X X X X X X X X X X X X X X X X X X X X X X X X X X X X X X X X X X X X X X X X X X X X X X X X X X X X X X X X X X X X X X X X X X X X X X X X X X X X X X X X X X X X X X ",
"o o o o o o o o o o o o o o o o o o o o o o o o o o o o o o o o o o o o o o o o o o o o o o o o o o o o o o o o o o o o o o o o o o o o o o o o o o o o o o o o o o o o o o o o o o o o o o o o o o o o o o o o o o o o o o o o o o o o o o o o o o o o o o o o o o o o o o o o o o o o ",
"O O O O O O O O O O O O O O O O O O O O O O O O O O O O O O O O O O O O O O O O O O O O O O O O O O O O O O O O O O O O O O O O O O O O O O O O O O O O O O O O O O O O O O O O O O O O O O O O O O O O O O O O O O O O O O O O O O O O O O O O O O O O O O O O O O O O O O O O O O O O ",
"+ + + + + + + + + + + + + + + + + + + + + + + + + + + + + + + + + + + + + + + + + + + + + + + + + + + + + + + + + + + + + + + + + + + + + + + + + + + + + + + + + + + + + + + + + + + + + + + + + + + + + + + + + + + + + + + + + + + + + + + + + + + + + + + + + + + + + + + + + + + + ",
"@ @ @ @ @ @ @ @ @ @ @ @ @ @ @ @ @ @ @ @ @ @ @ @ @ @ @ @ @ @ @ @ @ @ @ @ @ @ @ @ @ @ @ @ @ @ @ @ @ @ @ @ @ @ @ @ @ @ @ @ @ @ @ @ @ @ @ @ @ @ @ @ @ @ @ @ @ @ @ @ @ @ @ @ @ @ @ @ @ @ @ @ @ @ @ @ @ @ @ @ @ @ @ @ @ @ @ @ @ @ @ @ @ @ @ @ @ @ @ @ @ @ @ @ @ @ @ @ @ @ @ @ @ @ @ @ @ @ @ @ ",
"# # # # # # # # # # # # # # # # # # # # # # # # # # # # # # # # # # # # # # # # # # # # # # # # # # # # # # # # # # # # # # # # # # # # # # # # # # # # # # # # # # # # # # # # # # # # # # # # # # # # # # # # # # # # # # # # # # # # # # # # # # # # # # # # # # # # # # # # # # # # ",
"$ $ $ $ $ $ $ $ $ $ $ $ $ $ $ $ $ $ $ $ $ $ $ $ $ $ $ $ $ $ $ $ $ $ $ $ $ $ $ $ $ $ $ $ $ $ $ $ $ $ $ $ $ $ $ $ $ $ $ $ $ $ $ $ $ $ $ $ $ $ $ $ $ $ $ $ $ $ $ $ $ $ $ $ $ $ $ $ $ $ $ $ $ $ $ $ $ $ $ $ $ $ $ $ $ $ $ $ $ $ $ $ $ $ $ $ $ $ $ $ $ $ $ $ $ $ $ $ $ $ $ $ $ $ $ $ $ $ $ $ ",
"% % % % % % % % % % % % % % % % % % % % % % % % % % % % % % % % % % % % % % % % % % % % % % % % % % % % % % % % % % % % % % % % % % % % % % % % % % % % % % % % % % % % % % % % % % % % % % % % % % % % % % % % % % % % % % % % % % % % % % % % % % % % % % % % % % % % % % % % % % % % ",
"& & & & & & & & & & & & & & & & & & & & & & & & & & & & & & & & & & & & & & & & & & & & & & & & & & & & & & & & & & & & & & & & & & & & & & & & & & & & & & & & & & & & & & & & & & & & & & & & & & & & & & & & & & & & & & & & & & & & & & & & & & & & & & & & & & & & & & & & & & & & ",
"* * * * * * * * * * * * * * * * * * * * * * * * * * * * * * * * * * * * * * * * * * * * * * * * * * * * * * * * * * * * * * * * * * * * * * * * * * * * * * * * * * * * * * * * * * * * * * * * * * * * * * * * * * * * * * * * * * * * * * * * * * * * * * * * * * * * * * * * * * * * ",
"= = = = = = = = = = = = = = = = = = = = = = = = = = = = = = = = = = = = = = = = = = = = = = = = = = = = = = = = = = = = = = = = = = = = = = = = = = = = = = = = = = = = = = = = = = = = = = = = = = = = = = = = = = = = = = = = = = = = = = = = = = = = = = = = = = = = = = = = = = = = ",
"- - - - - - - - - - - - - - - - - - - - - - - - - - - - - - - - - - - - - - - - - - - - - - - - - - - - - - - - - - - - - - - - - - - - - - - - - - - - - - - - - - - - - - - - - - - - - - - - - - - - - - - - - - - - - - - - - - - - - - - - - - - - - - - - - - - - - - - - - - - - ",
"; ; ; ; ; ; : ; ; ; ; : ; ; ; ; : ; ; ; ; : ; ; ; ; ; ; ; > ; ; ; ; : ; ; ; ; : ; ; ; ; : ; ; ; ; : ; ; ; ; ; ; ; ; ; ; ; ; ; ; ; ; ; ; ; ; ; ; ; ; > ; ; ; ; ; ; ; ; ; ; ; ; ; ; ; : ; ; ; ; : ; ; ; ; : ; ; ; ; : ; ; ; ; ; ; ; > ; ; ; ; : ; ; ; ; : ; ; ; ; : ; ; ; ; : ; ; ; ; ; ; ",
", , < , , < , < , , < , < , , < , < , , < , < < , < , 1 < , < , , < , < , , < , < , , < , < , , < , < < , < , , 2 2 2 2 2 2 2 2 , 2 , , , , , , , , , , < , 2 2 2 2 2 2 2 2 2 2 , , , < , , < , < , , < , < , , < , < < , < , 1 < , < , , < , < , , < , < , , < , < , , < , < < , < , , ",
"3 3 4 3 3 4 3 4 3 3 4 3 4 3 3 4 3 4 3 3 4 3 4 3 3 4 3 3 3 3 4 3 3 3 3 4 3 3 4 3 4 3 3 4 3 4 3 3 4 3 3 3 3 4 5 6 7 8 9 9 9 9 9 9 9 0 q w 4 4 4 4 4 4 3 4 e r 9 9 9 9 9 9 9 9 9 t y 5 3 4 3 3 4 3 4 3 3 4 3 4 3 3 4 3 4 3 3 4 3 3 3 3 4 3 3 3 3 4 3 3 4 3 4 3 3 4 3 4 3 3 4 3 4 3 3 4 3 3 ",
"u u u u u u u u u u u u u u u u u u u u u u u u u u u u u u u u u u u u u u u u u u u u u u u u u u u u u u i p a s d f d d d f f g h j u u u u u u u u k l z x d d d d d d d c v b u u u u u u u u u u u u u u u u u u u u u u u u u u u u u u u u u u u u u u u u u u u u u u u u u u ",
"b b b n n n n n b b b n n n n n b b n n n n n n b b n n n n n b b b n n n n n b b n n n n n n b b n n n n n m M N B V V V V V V V V C Z n n n n n n n n A S z D V V V V V V V F v G b b b n n n n n n n n n n n n n n n n n n n n n n n n n n n n n n n n n n n n n b n n n n n n n n n ",
"H H H H H H H H H H H H H H H H H H H H H H H H H H H H H H H H H H H H H H H H H H H H H H H H H H H H H H J K N L V V V V V V V V P G H H H H H H H I 3 S z D V V V V V V V U Y T H H H H H H H H H H H H H H H H H H H H H H H H H H H H H H H H H H H H H H H H H H H H H H H H H H ",
"T T T T T T T T T T T T T T T T T T T T T T T T T T T T T T T T T T T T T T T T T T T T T T T T T T T T T T R E N L V V V V V V V V W Q T T T T T T J T j ! z D V V V V V V V ~ ^ / T T T T T T T T T T T T T T T T T T T T T T T T T T T T T T T T T T T T T T T T T T T T T T T T T T ",
"( ( ( ( ( ( ( ( ( ( ( ( ( ( ( ( ( ( ( ( ( ( ( ( ( ( ( ( ( ( ( ( ( ( ( ( ( ( ( ( ( ( ( ( ( ( ( ( ( ( ( ( ( ( / ) _ L V V V V V V V V ` ' ( ( ( ( ( ( ( ( ] [ z D V V V V V V V ~ { } ( ( ( ( ( ( ( ( ( ( ( ( ( ( ( ( ( ( ( ( ( ( ( ( ( ( ( ( ( ( ( ( ( ( ( ( ( ( ( ( ( ( ( ( ( ( ( ( ( ( ",
"/ | | | | | | | | | | | | | | | / / / | | | | / / / | | | | | / / / | | | | | / / | | | | | | | | | | | | |  ...N L V V V V V V V V X.o./ | | | | | | / Z [ z D V V V V V V V ~ O.+.| | | | | | | | | | | | | | | | | | | | | | | | | | | | | | | | | | | | | | | | | | | | | | | | / / ",
"@.@.@.@.@.@.@.@.@.@.@.@.@.@.@.@.@.@.@.@.@.@.@.@.@.@.@.@.@.@.@.@.@.@.@.@.@.@.@.@.@.@.@.@.@.@.@.@.@.@.@.@.@.@.#.$.%.L V V V V V V V V l &.@.@.@.@.@.@.@.@.*.[ z D V V V V V V V =.-.;.@.@.@.@.@.@.@.@.@.@.@.@.@.@.@.@.@.@.@.@.@.@.@.@.@.@.@.@.@.@.@.@.@.@.@.@.@.@.@.@.@.@.@.@.@.@.@.@.@.@.",
"@.@.@.@.@.@.@.@.@.@.@.@.@.@.@.@.@.@.@.@.@.@.@.@.@.@.@.@.@.@.@.@.@.@.@.@.@.@.@.@.@.@.@.@.@.@.@.@.@.@.@.@.@.@.#.$.%.L V V V V V V V V l &.@.@.@.@.@.@.@.:.>.X z D V V V V V V V =.-.;.@.@.@.@.@.@.@.@.@.@.@.@.@.@.@.@.@.@.@.@.@.@.@.@.@.@.@.@.@.@.@.@.@.@.@.@.@.@.@.@.@.@.@.@.@.@.@.@.@.@.",
"@.@.@.@.@.@.@.@.@.@.@.@.@.@.@.@.@.@.@.@.@.@.@.@.@.@.@.@.@.@.@.@.@.@.@.@.@.@.@.@.@.@.@.@.@.@.@.@.@.@.@.@.@.@.#.$.,.L V V V V V V V V l &.@.@.@.@.@.@.@.:.>.X z D V V V V V V V =.-.;.@.@.@.@.@.@.@.@.@.@.@.@.@.@.@.@.@.@.@.@.@.@.@.@.@.@.@.@.@.@.@.@.@.@.@.@.@.@.@.@.@.@.@.@.@.@.@.@.@.@.",
"@.@.@.@.@.@.@.@.@.@.@.@.@.@.@.@.@.@.@.@.@.@.@.@.@.@.@.@.@.@.@.@.@.@.@.@.@.@.@.@.@.@.@.@.@.@.@.@.@.@.@.@.@.@.#.$.%.L V V V V V V V V l &.@.@.@.@.@.@.@.:.>.X z D V V V V V V V =.-.;.@.@.@.@.@.@.@.@.@.@.@.@.@.@.@.@.@.@.@.@.@.@.@.@.@.@.@.@.@.@.@.@.@.@.@.@.@.@.@.@.@.@.@.@.@.@.@.@.@.@.",
"@.@.@.@.@.@.@.@.@.@.@.@.@.@.@.@.@.@.@.@.@.@.@.@.@.@.@.@.@.@.@.@.@.@.@.@.@.@.@.@.@.@.@.@.@.@.@.@.@.@.@.@.@.@.#.$.%.L V V V V V V V V l &.@.@.@.@.@.@.@.:.>.X z D V V V V V V V =.-.;.@.@.@.@.@.@.@.@.@.@.@.@.@.@.@.@.@.@.@.@.@.@.@.@.@.@.@.@.@.@.@.@.@.@.@.@.@.@.@.@.@.@.@.@.@.@.@.@.@.@.",
"@.@.@.@.@.@.@.@.@.@.@.@.@.@.@.@.@.@.@.@.@.@.@.@.@.@.@.@.@.@.@.@.@.@.@.@.@.@.@.@.@.@.@.@.@.@.@.@.@.@.@.@.@.@.#.$.%.L V V V V V V V V l &.@.@.@.@.@.@.@.:.>.X z D V V V V V V V =.-.;.@.@.@.@.@.@.@.@.@.@.@.@.@.@.@.@.@.@.@.@.@.@.@.@.@.@.@.@.@.@.@.@.@.@.@.@.@.@.@.@.@.@.@.@.@.@.@.@.@.@.",
"@.@.@.@.@.@.@.@.@.@.@.@.@.@.@.@.@.@.@.@.@.@.@.@.@.@.@.@.@.@.@.@.@.@.@.@.@.@.@.@.@.@.@.@.@.@.@.@.@.@.@.@.@.@.#.$.%.L V V V V V V V V l &.@.@.@.@.@.@.@.:.>.X z D V V V V V V V =.-.;.@.@.@.@.@.@.@.@.@.@.@.@.@.@.@.@.@.@.@.@.@.@.@.@.@.@.@.@.@.@.@.@.@.@.@.@.@.@.@.@.@.@.@.@.@.@.@.@.@.@.",
"@.@.@.@.@.@.@.@.@.@.@.@.@.@.@.@.@.@.@.@.@.@.@.@.@.@.@.@.@.@.@.@.@.@.@.@.@.@.@.@.@.@.@.@.@.@.@.@.@.@.@.@.@.@.#.$.%.L V V V V V V V V l &.@.@.@.@.@.@.@.:.>.X z D V V V V V V V =.-.;.@.@.@.@.@.@.@.@.@.@.@.@.@.@.@.@.@.@.@.@.@.@.@.@.@.@.@.@.@.@.@.@.@.@.@.@.@.@.@.@.@.@.@.@.@.@.@.@.@.@.",
"@.@.@.@.@.@.@.@.@.@.@.@.@.@.@.@.@.@.@.@.@.@.@.@.@.@.@.@.@.@.@.@.@.@.@.@.@.@.@.@.@.@.@.@.@.@.@.@.@.@.@.@.@.@.#.$.%.L V V V V V V V V l &.@.@.@.@.@.@.@.:.>.X z D V V V V V V V =.-.;.@.@.@.@.@.@.@.@.@.@.@.@.@.@.@.@.@.@.@.@.@.@.@.@.@.@.@.@.@.@.@.@.@.@.@.@.@.@.@.@.@.@.@.@.@.@.@.@.@.@.",
"@.@.@.@.@.@.@.@.@.@.@.@.@.@.@.@.@.@.@.@.@.@.@.@.@.@.@.@.@.@.@.@.@.@.@.@.@.@.@.@.@.@.@.@.@.@.@.@.@.@.@.@.@.@.#.$.%.L V V V V V V V V l &.@.@.@.@.@.@.@.:.>.X z D V V V V V V V =.-.;.@.@.@.@.@.@.@.@.@.@.@.@.@.@.@.@.@.@.@.@.@.@.@.@.@.@.@.@.@.@.@.@.@.@.@.@.@.@.@.@.@.@.@.@.@.@.@.@.@.@.",
"@.@.@.@.@.@.@.@.@.@.@.@.@.@.@.@.@.@.@.@.@.@.@.@.@.@.@.@.@.@.@.@.@.@.@.@.@.@.@.@.@.@.@.@.@.@.@.@.@.@.@.@.@.@.#.$.%.L V V V V V V V V l &.@.@.@.@.@.@.@.:.>.X z D V V V V V V V =.-.;.@.@.@.@.@.@.@.@.@.@.@.@.@.@.@.@.@.@.@.@.@.@.@.@.@.@.@.@.@.@.@.@.@.@.@.@.@.@.@.@.@.@.@.@.@.@.@.@.@.@.",
"@.@.@.@.@.@.@.@.@.@.@.@.@.@.@.@.@.@.@.@.@.@.@.@.@.@.@.@.@.@.@.@.@.@.@.@.@.@.@.@.@.@.@.@.@.@.@.@.@.@.@.@.@.@.#.$.%.L V V V V V V V V l &.@.@.@.@.@.@.@.:.>.X z D V V V V V V V =.-.;.@.@.@.@.@.@.@.@.@.@.@.@.@.@.@.@.@.@.@.@.@.@.@.@.@.@.@.@.@.@.@.@.@.@.@.@.@.@.@.@.@.@.@.@.@.@.@.@.@.@.",
"@.@.@.@.@.@.@.@.@.@.@.@.@.@.@.@.@.@.@.@.@.@.@.@.@.@.@.@.@.@.@.@.@.@.@.@.@.@.@.@.@.@.@.@.@.@.@.@.@.@.@.@.@.@.#.$.%.L V V V V V V V V l &.@.@.@.@.@.@.@.:.>.X z D V V V V V V V =.-.;.@.@.@.@.@.@.@.@.@.@.@.@.@.@.@.@.@.@.@.@.@.@.@.@.@.@.@.@.@.@.@.@.@.@.@.@.@.@.@.@.@.@.@.@.@.@.@.@.@.@.",
"@.@.@.@.@.@.@.@.@.@.@.@.@.@.@.@.@.@.@.@.@.@.@.@.@.@.@.@.@.@.@.@.@.@.@.@.@.@.@.@.@.@.@.@.@.@.@.@.@.@.@.@.@.@.#.$.%.L V V V V V V V V l &.@.@.@.@.@.@.@.:.>.X z D V V V V V V V =.-.;.@.@.@.@.@.@.@.@.@.@.@.@.@.@.@.@.@.@.@.@.@.@.@.@.@.@.@.@.@.@.@.@.@.@.@.@.@.@.@.@.@.@.@.@.@.@.@.@.@.@.",
"@.@.@.@.@.@.@.@.@.@.@.@.@.@.@.@.@.@.@.@.@.@.@.@.@.@.@.@.@.@.@.@.@.@.@.@.@.@.@.@.@.@.@.@.@.@.@.@.@.@.@.@.@.@.#.$.%.L V V V V V V V V l &.@.@.@.@.@.@.@.:.>.X z D V V V V V V V =.-.;.@.@.@.@.@.@.@.@.@.@.@.@.@.@.@.@.@.@.@.@.@.@.@.@.@.@.@.@.@.@.@.@.@.@.@.@.@.@.@.@.@.@.@.@.@.@.@.@.@.@.",
"@.@.@.@.@.@.@.@.@.@.@.@.@.@.@.@.@.@.@.@.@.@.@.@.@.@.@.@.@.@.@.@.@.@.@.@.@.@.@.@.@.@.@.@.@.@.@.@.@.@.@.@.@.@.#.$.%.L V V V V V V V V l &.@.@.@.@.@.@.@.:.>.X z D V V V V V V V =.-.;.@.@.@.@.@.@.@.@.@.@.@.@.@.@.@.@.@.@.@.@.@.@.@.@.@.@.@.@.@.@.@.@.@.@.@.@.@.@.@.@.@.@.@.@.@.@.@.@.@.@.",
"@.@.@.@.@.@.@.@.@.@.@.@.@.@.@.@.@.@.@.@.@.@.@.@.@.@.@.@.@.@.@.@.@.@.@.@.@.@.@.@.@.@.@.@.@.@.@.@.@.@.@.@.@.@.#.$.,.L V V V V V V V V l &.@.@.@.@.@.@.@.:.>.X z D V V V V V V V =.-.;.@.@.@.@.@.@.@.@.@.@.@.@.@.@.@.@.@.@.@.@.@.@.@.@.@.@.@.@.@.@.@.@.@.@.@.@.@.@.@.@.@.@.@.@.@.@.@.@.@.@.",
"@.@.@.@.@.@.@.@.@.@.@.@.@.@.@.@.@.@.@.@.@.@.@.@.@.@.@.@.@.@.@.@.@.@.@.@.@.@.@.@.@.@.@.@.@.@.@.@.@.@.@.@.@.@.#.$.%.L V V V V V V V V l &.@.@.@.@.@.@.@.:.>.X z D V V V V V V V =.-.;.@.@.@.@.@.@.@.@.@.@.@.@.@.@.@.@.@.@.@.@.@.@.@.@.@.@.@.@.@.@.@.@.@.@.@.@.@.@.@.@.@.@.@.@.@.@.@.@.@.@.",
"@.@.@.@.@.@.@.@.@.@.@.@.@.@.@.@.@.@.@.@.@.@.@.@.@.@.@.@.@.@.@.@.@.@.@.@.@.@.@.@.@.@.@.@.@.@.@.@.@.@.@.@.@.@.#.<.1.B V V V V V V V V l &.@.@.@.@.@.@.@.:.>.[ 2.D V V V V V V V 3.-.;.@.@.@.@.@.@.@.@.@.@.@.@.@.@.@.@.@.@.@.@.@.@.@.@.@.@.@.@.@.@.@.@.@.@.@.@.@.@.@.@.@.@.@.@.@.@.@.@.@.@.",
"@.@.@.@.@.@.@.@.@.@.@.@.@.@.@.@.@.@.@.@.@.@.@.@.@.@.@.@.@.@.@.@.@.@.@.@.@.@.@.@.@.@.@.@.@.@.@.@.@.@.@.@.@.@.:.4.$ 5.@ @ @ @ @ @ @ 6.7.8.@.@.@.@.@.@.@.@.9.0.$.q.@ @ @ @ @ @ @ w.e.:.@.@.@.@.@.@.@.@.@.@.@.@.@.@.@.@.@.@.@.@.@.@.@.@.@.@.@.@.@.@.@.@.@.@.@.@.@.@.@.@.@.@.@.@.@.@.@.@.@.@.",
"@.@.@.@.@.@.@.@.@.@.@.@.@.@.@.@.@.@.@.@.@.@.@.@.@.@.@.@.@.@.@.@.@.@.@.@.@.@.@.@.@.@.@.@.@.@.@.@.@.@.@.@.@.@.@.:.;.;.r.;.;.;.;.;.;.;.#.@.@.@.@.@.@.@.@.@.@.#.;.;.;.;.;.;.;.;.;.;.:.@.@.@.@.@.@.@.@.@.@.@.@.@.@.@.@.@.@.@.@.@.@.@.@.@.@.@.@.@.@.@.@.@.@.@.@.@.@.@.@.@.@.@.@.@.@.@.@.@.@.@.",
"@.@.@.@.@.@.@.@.@.@.@.@.@.@.@.@.@.@.@.@.@.@.@.@.@.@.@.@.@.@.@.@.@.@.@.@.@.@.@.@.@.@.@.@.@.@.@.@.@.@.@.@.@.@.@.@.@.@.@.@.@.@.@.@.@.@.@.@.@.@.@.@.@.@.@.@.@.@.@.@.@.@.@.@.@.@.@.@.@.@.@.@.@.@.@.@.@.@.@.@.@.@.@.@.@.@.@.@.@.@.@.@.@.@.@.@.@.@.@.@.@.@.@.@.@.@.@.@.@.@.@.@.@.@.@.@.@.@.@.@.",
"@.@.@.@.@.@.@.@.@.@.@.@.@.@.@.@.@.@.@.@.@.@.@.@.@.@.@.@.@.@.@.@.@.@.@.@.@.@.@.@.@.@.@.@.@.@.@.@.@.@.@.@.@.@.@.@.@.@.@.@.@.@.@.@.@.@.@.@.@.@.@.@.@.@.@.@.@.@.@.@.@.@.@.@.@.@.@.@.@.@.@.@.@.@.@.@.@.@.@.@.@.@.@.@.@.@.@.@.@.@.@.@.@.@.@.@.@.@.@.@.@.@.@.@.@.@.@.@.@.@.@.@.@.@.@.@.@.@.@.@.",
"t.8.8.8.8.8.8.8.8.8.8.8.8.8.8.8.8.8.8.8.8.8.8.8.8.8.8.8.8.8.8.8.8.8.8.8.8.8.8.8.8.8.8.8.8.8.8.8.8.8.8.8.8.8.8.8.8.8.8.8.8.8.8.8.8.8.8.8.8.8.8.8.8.8.8.8.8.8.8.8.8.8.8.8.8.8.8.8.8.8.8.8.8.8.8.8.8.8.8.8.8.8.8.8.8.8.8.8.8.8.8.8.8.8.8.8.8.8.8.8.8.8.8.8.8.8.8.8.8.8.8.8.8.8.8.8.8.8.8.8.",
"y.' u.' ' ' ' u.' ' ' ' ' ' ' ' ' ' ' ' u.' ' ' ' u.' ' ' ' u.' ' ' ' u.' ' ' ' ' ' ' ' ' ' ' ' u.' ' ' ' u.' ' ' ' u.' ' ' ' u.' ' ' ' ' ' ' ' ' ' ' ' u.' ' ' ' u.' ' ' ' u.' ' ' ' u.' ' ' ' ' ' ' ' ' ' ' ' u.' ' ' ' u.' ' ' ' u.' ' ' ' u.' ' ' ' ' ' ' ' ' ' ' ' u.' ' ' ' u.' ' ",
"i.p.a.s.s.a.p.a.s.s.a.p.a.a.s.a.p.a.a.s.a.p.a.a.p.a.s.a.a.p.a.s.a.a.p.a.s.s.a.p.a.a.s.a.p.a.a.s.a.p.a.a.p.a.p.a.a.p.a.s.s.a.p.a.s.s.a.p.a.a.s.a.p.a.a.s.a.p.a.a.p.a.s.a.a.p.a.s.a.a.p.a.s.s.a.p.a.a.s.a.p.a.a.s.a.p.a.a.p.a.p.a.a.p.a.s.s.a.p.a.s.s.a.p.a.a.s.a.p.a.a.s.a.p.a.a.p.a.p.d.",
"f.f.f.f.g.f.f.f.f.g.f.f.f.f.g.f.f.f.f.g.f.f.f.f.g.f.f.f.f.g.f.f.f.f.g.f.f.f.f.g.f.f.f.f.g.g.f.f.f.f.g.f.f.f.f.g.f.f.f.f.g.f.f.f.f.g.f.f.f.f.g.f.f.f.f.g.f.f.f.f.g.f.f.f.f.g.f.f.f.f.g.f.f.f.f.g.f.f.f.f.g.g.f.f.f.f.g.f.f.f.f.g.f.f.f.f.g.f.f.f.f.g.f.f.f.f.g.f.f.f.f.g.f.f.f.f.g.f.h.j.",
"k.l.z.l.x.x.l.z.l.l.x.l.z.x.x.c.l.c.x.l.c.l.c.x.l.x.l.c.c.l.c.l.x.c.l.c.l.x.c.l.x.l.x.z.l.x.x.l.c.l.x.x.x.z.l.x.x.l.z.l.x.x.l.c.l.x.x.l.z.x.l.x.l.c.x.l.c.l.c.x.l.c.l.c.c.l.x.l.c.c.l.c.l.x.c.l.c.x.x.z.l.x.x.x.z.l.x.x.l.z.l.x.x.l.z.l.x.x.l.z.l.x.x.l.c.x.x.c.l.c.x.l.x.l.c.x.l.c.k.v.",
"b.n.n.n.n.n.n.n.n.n.n.n.n.n.n.n.n.n.n.n.n.n.n.n.n.n.n.n.n.n.n.n.n.n.n.n.n.n.n.n.n.n.n.n.n.n.n.n.n.n.n.n.n.n.n.n.n.n.n.n.n.n.n.n.n.n.n.n.n.n.n.n.n.n.n.n.n.n.n.n.n.n.n.n.n.n.n.n.n.n.n.n.n.n.n.n.n.n.n.n.n.n.n.n.n.n.n.n.n.n.n.n.n.n.n.n.n.n.n.n.n.n.n.n.n.n.n.n.n.n.n.n.n.n.n.n.n.n.m.m.",
"M.N.B.V.V.V.V.V.N.B.N.V.V.V.V.V.B.B.N.V.V.V.V.N.B.B.V.V.V.V.V.N.B.N.V.V.V.V.V.B.B.V.V.V.V.V.N.B.N.V.V.V.V.V.N.B.N.V.V.V.V.V.B.B.V.V.V.V.V.N.B.N.V.V.V.V.V.N.B.N.V.V.V.V.N.B.B.V.V.V.V.V.N.B.N.V.V.V.V.V.B.B.N.V.V.V.V.N.B.B.V.V.V.V.V.N.B.N.V.V.V.V.V.B.B.V.V.V.V.V.N.B.N.V.V.V.V.V.C.C.",
"Z.A.A.A.A.A.S.S.A.A.A.A.A.D.S.F.A.A.A.A.A.S.S.D.A.A.A.A.A.S.S.A.A.A.A.A.F.S.F.A.A.A.A.A.S.S.D.A.A.A.A.D.S.S.A.A.A.A.A.F.S.F.A.A.A.A.A.S.S.A.A.A.A.A.D.S.F.A.A.A.A.A.F.S.D.A.A.A.A.A.S.S.A.A.A.A.A.D.S.F.A.A.A.A.A.S.S.D.A.A.A.A.A.S.S.A.A.A.A.A.F.S.F.A.A.A.A.A.S.S.D.A.A.A.A.D.S.S.A.A.",
"G.H.J.J.J.K.J.J.K.K.J.J.J.K.J.J.K.K.J.J.K.J.J.J.L.J.P.J.K.J.J.K.K.J.J.J.K.J.J.K.K.J.J.K.J.J.P.L.J.P.J.K.J.J.K.K.J.J.J.J.J.J.L.P.J.J.K.J.J.K.L.J.J.J.K.J.J.K.K.J.J.K.J.J.J.L.J.P.J.K.J.J.K.K.J.J.J.K.J.J.K.K.J.J.K.J.J.J.L.J.P.J.K.J.J.K.K.J.J.J.K.J.J.K.K.J.J.K.J.J.P.L.J.P.J.K.J.J.I.U.",
"Y.T.T.R.E.W.R.R.W.W.E.R.E.W.R.R.Q.W.E.E.W.R.R.W.Q.E.R.E.W.R.R.W.W.E.E.R.W.R.R.Q.R.E.E.W.R.R.W.Q.E.R.E.W.R.R.W.W.E.E.R.R.R.R.Q.E.R.E.W.R.R.W.Q.E.R.E.W.R.R.Q.W.E.E.R.R.R.W.Q.E.R.E.W.R.R.W.W.E.R.E.W.R.R.Q.W.E.E.W.R.R.W.Q.E.R.E.W.R.R.W.W.E.E.R.W.R.R.Q.R.E.E.W.R.R.W.Q.E.R.E.W.R.R.!.!."
};
